<svg width="42" height="42" viewBox="0 0 42 42" fill="none" xmlns="http://www.w3.org/2000/svg">
<path d="M41.3046 5.88599L36.0347 0.66639C35.5817 0.238631 34.9799 0 34.354 0C33.7281 0 33.1263 0.238631 32.6733 0.66639L27.9874 5.32171H2.84859C2.0931 5.32171 1.36855 5.61897 0.834333 6.14808C0.300118 6.6772 0 7.39483 0 8.14312V39.1786C0 39.9269 0.300118 40.6445 0.834333 41.1736C1.36855 41.7027 2.0931 42 2.84859 42H34.1831C34.9386 42 35.6631 41.7027 36.1973 41.1736C36.7316 40.6445 37.0317 39.9269 37.0317 39.1786V13.4474L41.3046 9.21525C41.7499 8.77354 42 8.17484 42 7.55062C42 6.92641 41.7499 6.3277 41.3046 5.88599ZM21.1223 25.2549L15.1545 26.5669L16.5788 20.7125L30.1808 7.21205L34.7813 11.7686L21.1223 25.2549ZM36.3195 10.1604L31.7191 5.60385L34.354 2.99405L38.9545 7.55062L36.3195 10.1604Z" fill="#EC6418"/>
</svg>
