<svg width="33" height="50" viewBox="0 0 33 50" fill="none" xmlns="http://www.w3.org/2000/svg">
<path d="M17.5 17.5L21.1 22.9C21.875 24.075 23.625 25 25.025 25H32.5V20H25L21.4 14.6C20.4374 13.2457 19.2543 12.0626 17.9 11.1L14.6 8.9C13.961 8.51646 13.2333 8.30558 12.4882 8.28805C11.7432 8.27052 11.0063 8.44694 10.35 8.8L0 15V27.5H5V17.5L10 15L2.5 50H7.5L13.375 30.875L17.5 35V50H22.5V30L15.75 23.25L17.5 17.5ZM20 10C21.3261 10 22.5979 9.47322 23.5355 8.53553C24.4732 7.59785 25 6.32608 25 5C25 3.67392 24.4732 2.40215 23.5355 1.46447C22.5979 0.526784 21.3261 0 20 0C18.6739 0 17.4021 0.526784 16.4645 1.46447C15.5268 2.40215 15 3.67392 15 5C15 6.32608 15.5268 7.59785 16.4645 8.53553C17.4021 9.47322 18.6739 10 20 10Z" fill="#3167D0"/>
</svg>
